<svg width="29" height="33" xmlns="http://www.w3.org/2000/svg" xmlns:xlink="http://www.w3.org/1999/xlink" xmlns:svgjs="http://svgjs.com/svgjs" viewBox="0.063 0 28.875 33" fill="#fff"><svg xmlns="http://www.w3.org/2000/svg" width="29" height="33" viewBox="2 1.999 28 32"><path paint-order="stroke fill markers" fill-rule="evenodd" d="M28.112 7.022l-1.215-3.657A2 2 0 0 0 25 2H7a2 2 0 0 0-1.898 1.366L3.878 7.023C2.834 7.091 2 7.938 2 9v3a2 2 0 0 0 2 2h1.034c0 .075-.03.145-.021.22l2 18A2 2 0 0 0 9 34h14a2 2 0 0 0 1.987-1.78l2-18c.01-.075-.021-.145-.021-.22H28a2 2 0 0 0 2-2V9c0-1.065-.839-1.916-1.888-1.977zM7 3.998h18l1 3H6l1-3zM9 32l-.333-3h14.666L23 32H9zm14.444-4H8.556l-1.112-10h17.112l-1.112 10zm1.223-11H7.333l-.333-3h18l-.333 3zm3.333-5H4V9h24v3z"/></svg></svg>