<svg width="33" height="33" xmlns="http://www.w3.org/2000/svg" xmlns:xlink="http://www.w3.org/1999/xlink" xmlns:svgjs="http://svgjs.com/svgjs" viewBox="0 0.001 33 32.999" fill="#fff"><svg xmlns="http://www.w3.org/2000/svg" width="33" height="33" viewBox="2 2 32 31.999"><path paint-order="stroke fill markers" fill-rule="evenodd" d="M22.681 5.732a2.48 2.48 0 0 0-1.767-.733c-.668 0-1.295.26-1.769.734l-1.41 1.412A2.483 2.483 0 0 0 17 8.914c0 .47.129.92.371 1.312l-13.577 5.44a2.999 2.999 0 0 0-.907 4.875l12.72 12.58a2.974 2.974 0 0 0 2.121.878 2.986 2.986 0 0 0 2.787-1.89l5.342-13.376a2.48 2.48 0 0 0 1.369.406c.668 0 1.296-.26 1.767-.733L30.401 17a2.483 2.483 0 0 0 .739-1.773c0-.67-.263-1.3-.733-1.768L22.68 5.732zm-4.023 25.634a.999.999 0 0 1-1.637.341L4.293 19.12a1 1 0 0 1 .306-1.623l6.217-2.492c4.19 1.393 8.38.052 12.57 4.523l-4.728 11.838zM28.992 15.58l-1.413 1.414a.498.498 0 0 1-.707 0l-1.768-1.767-1.433 3.589.121-.303c-3.01-3.006-6.07-3.384-8.83-3.723-.887-.109-1.746-.222-2.592-.405l8.492-3.402-1.716-1.714a.5.5 0 0 1 0-.707l1.414-1.415a.498.498 0 0 1 .708 0l7.724 7.726a.498.498 0 0 1 0 .707zM18.5 23c1.378 0 2.5-1.12 2.5-2.5 0-1.378-1.122-2.5-2.5-2.5a2.503 2.503 0 0 0-2.5 2.5c0 1.38 1.122 2.5 2.5 2.5zm0-4a1.5 1.5 0 1 1 0 3 1.5 1.5 0 0 1 0-3zm13-17A2.502 2.502 0 0 0 29 4.5C29 5.88 30.122 7 31.5 7S34 5.88 34 4.5C34 3.121 32.878 2 31.5 2zm0 4a1.5 1.5 0 1 1 0-3 1.5 1.5 0 0 1 0 3zM10 19c0 1.103.897 2 2 2s2-.897 2-2-.897-2-2-2-2 .897-2 2zm2-1a1 1 0 1 1 0 2 1 1 0 0 1 0-2zm3 8A1 1 0 1 0 15 24a1 1 0 0 0 0 2zM31 9a1 1 0 1 0 0 2 1 1 0 0 0 0-2z"/></svg></svg>