<svg width="33" height="33" xmlns="http://www.w3.org/2000/svg" xmlns:xlink="http://www.w3.org/1999/xlink" xmlns:svgjs="http://svgjs.com/svgjs" fill="#fff"><svg xmlns="http://www.w3.org/2000/svg" width="33" height="33" viewBox="2 1.999 32 32"><path paint-order="stroke fill markers" fill-rule="evenodd" d="M31.164 12.47c-1.249-.328-4.19-.324-8.488-.437.204-.938.25-1.784.25-3.285 0-3.589-2.614-6.75-4.926-6.75-1.633 0-2.98 1.336-3 2.978-.022 2.014-.645 5.492-4 7.255-.246.13-.95.477-1.053.523l.053.044C9.475 12.345 8.747 12 8 12H5c-1.654 0-3 1.346-3 3v16c0 1.655 1.346 3 3 3h3c1.19 0 2.185-.718 2.668-1.726.012.004.033.01.047.01.066.019.143.038.24.064l.045.012c.576.142 1.685.408 4.055.952.508.116 3.191.688 5.973.688h5.466c1.667 0 2.867-.64 3.582-1.928.01-.02.241-.468.429-1.076.14-.457.193-1.103.023-1.76 1.074-.737 1.42-1.854 1.645-2.58.376-1.19.262-2.086 0-2.726.604-.57 1.12-1.44 1.338-2.765a3.758 3.758 0 0 0-.39-2.374c.567-.634.825-1.436.854-2.175l.011-.209c.008-.132.014-.213.014-.501 0-1.263-.874-2.874-2.836-3.434zM9 31a1 1 0 0 1-1 1H5a1 1 0 0 1-1-1V14.998a1 1 0 0 1 1-1h3a1 1 0 0 1 1 1v16zm22.978-14.467c-.021.495-.228 1.465-1.978 1.465h-2a.5.5 0 1 0 0 1h1.937c1.5 0 1.698 1.245 1.6 1.845-.122.746-.473 2.156-2.161 2.156H27a.5.5 0 1 0 0 1h1.969c1.687 0 1.54 1.287 1.297 2.055-.319 1.01-.514 1.945-2.64 1.945h-1.632a.5.5 0 1 0 0 1h1.568c1.094 0 1.146 1.035 1.032 1.406a5.276 5.276 0 0 1-.28.721c-.302.545-.789.873-1.82.873h-5.466c-2.747 0-5.47-.623-5.54-.638-4.155-.958-4.374-1.032-4.635-1.106 0 0-.845-.142-.845-.88L10 15.562c0-.469.299-.892.794-1.042.061-.024.146-.05.206-.075 4.568-1.892 5.959-6.04 6-9.447.006-.478.375-1 1-1 1.058 0 2.926 2.123 2.926 4.75 0 2.37-.095 2.779-.926 5.25 10 0 9.93.144 10.812.375 1.094.313 1.188 1.22 1.188 1.532 0 .342-.01.292-.022.628zM6.5 28a1.5 1.5 0 1 0 0 3 1.5 1.5 0 0 0 0-3zm0 2a.5.5 0 1 1 .5-.5c0 .275-.225.5-.5.5z"/></svg></svg>