<svg width="29" height="28" xmlns="http://www.w3.org/2000/svg" xmlns:xlink="http://www.w3.org/1999/xlink" xmlns:svgjs="http://svgjs.com/svgjs" viewBox="0.049 0 28.903 28" fill="#0d0d0d"><svg xmlns="http://www.w3.org/2000/svg" width="29" height="28" viewBox="1.4 1.324 27.2 26.351"><path paint-order="stroke fill markers" fill-rule="evenodd" d="M28.498 11.147a1.957 1.957 0 0 0-1.566-1.284l-7.077-1.052-3.077-6.387A1.968 1.968 0 0 0 15 1.324a1.97 1.97 0 0 0-1.778 1.1L10.145 8.81 3.067 9.863a1.955 1.955 0 0 0-1.565 1.284c-.234.68-.057 1.43.456 1.943l5.187 5.179-1.203 7.183c-.122.723.192 1.45.806 1.873a2.004 2.004 0 0 0 2.082.111L15 24.114l6.17 3.322a2.007 2.007 0 0 0 2.082-.111c.615-.424.928-1.15.806-1.873l-1.203-7.183 5.187-5.18c.514-.511.69-1.261.456-1.942zm-7.049 5.786a1.881 1.881 0 0 0-.532 1.643l1.203 7.185-6.17-3.321a2.014 2.014 0 0 0-1.9 0l-6.17 3.32 1.203-7.184a1.882 1.882 0 0 0-.532-1.643l-5.187-5.179 7.078-1.053a1.963 1.963 0 0 0 1.481-1.078L15 3.238l3.077 6.385c.278.577.834.981 1.48 1.078l7.079 1.053-5.187 5.179z"/></svg></svg>