<svg width="33" height="33" xmlns="http://www.w3.org/2000/svg" xmlns:xlink="http://www.w3.org/1999/xlink" xmlns:svgjs="http://svgjs.com/svgjs" fill="#fff"><svg xmlns="http://www.w3.org/2000/svg" width="33" height="33" viewBox="2 1.999 32.001 32"><path paint-order="stroke fill markers" fill-rule="evenodd" d="M33.11 30.335c-.2-.133-3.848-2.525-9.273-3.699 1.99-2.523 3.267-5.913 3.81-8.17.753-3.128.461-9.248-2.543-13.061C23.35 3.177 20.891 1.999 18 1.999c-2.892 0-5.349 1.178-7.105 3.406C7.892 9.218 7.6 15.338 8.352 18.467c.544 2.256 1.82 5.646 3.811 8.17-5.425 1.173-9.072 3.565-9.272 3.698A2 2 0 0 0 4 33.999h27.999a2 2 0 0 0 1.11-3.664zm-10.844-4.938l-.327.415c-2.384 2.74-5.494 2.74-7.879 0l-.327-.415c-2.785-3.53-4.167-8.196-3.572-12.649.546-4.28 2.998-8.75 7.839-8.75 4.84 0 7.293 4.47 7.839 8.75.592 4.455-.785 9.119-3.573 12.65zM4 32c.138-.092 3.526-2.314 8.586-3.408l2.484-.538c.886.583 1.86.947 2.93.947s2.044-.364 2.93-.947l2.484.538C28.434 29.677 31.81 31.873 32 32H4z"/></svg></svg>