<svg width="30" height="30" xmlns="http://www.w3.org/2000/svg" xmlns:xlink="http://www.w3.org/1999/xlink" xmlns:svgjs="http://svgjs.com/svgjs" fill="#f39e12"><svg xmlns="http://www.w3.org/2000/svg" width="30" height="30" viewBox="1.55 1.549 27.9 27.9"><path paint-order="stroke fill markers" fill-rule="evenodd" d="M15.5 1.55C7.796 1.55 1.55 7.794 1.55 15.5c0 7.704 6.246 13.95 13.95 13.95 7.704 0 13.95-6.246 13.95-13.95 0-7.705-6.246-13.95-13.95-13.95zm12.127 13.499h-5.396a17.913 17.913 0 0 0-1.033-5.64A14.785 14.785 0 0 0 24.56 7.43a12.078 12.078 0 0 1 3.067 7.618zM15.003 27.624c-1.496-1.246-2.75-2.863-3.669-4.74a13.911 13.911 0 0 1 3.716-.611v5.353l-.047-.002zm.994-24.25c1.697 1.414 3.082 3.307 4.019 5.514-1.282.44-2.647.693-4.066.739V3.372l.047.003zm1.498.154a12.108 12.108 0 0 1 6.448 3.253 13.836 13.836 0 0 1-3.084 1.798c-.82-1.942-1.97-3.658-3.364-5.051zm-2.445-.156v6.255c-1.42-.046-2.784-.3-4.066-.74.937-2.206 2.322-4.099 4.02-5.512l.046-.003zM10.14 8.58a13.836 13.836 0 0 1-3.084-1.798 12.108 12.108 0 0 1 6.448-3.253C12.11 4.92 10.96 6.637 10.14 8.579zm.504 1.138a14.76 14.76 0 0 0 4.405.81v4.522H9.67c.048-1.884.382-3.685.975-5.332zm4.405 6.233v5.422c-1.42.043-2.791.276-4.085.692a16.887 16.887 0 0 1-1.296-6.114h5.38zm-1.545 11.52a12.091 12.091 0 0 1-5.89-2.746 13.76 13.76 0 0 1 2.868-1.53 15.582 15.582 0 0 0 3.022 4.277zm2.445.156v-5.353c1.29.04 2.538.242 3.716.61-.919 1.878-2.173 3.495-3.669 4.74-.015.002-.031.002-.047.003zm4.567-4.433c1.024.397 1.982.917 2.869 1.531a12.092 12.092 0 0 1-5.89 2.747 15.582 15.582 0 0 0 3.02-4.278zm-.482-1.13a14.795 14.795 0 0 0-4.085-.691V15.95h5.38a16.89 16.89 0 0 1-1.295 6.114zM15.95 15.05v-4.523a14.76 14.76 0 0 0 4.405-.809c.593 1.647.927 3.448.976 5.332H15.95zM6.44 7.43a14.782 14.782 0 0 0 3.362 1.977 17.91 17.91 0 0 0-1.033 5.64H3.373A12.078 12.078 0 0 1 6.44 7.432zM3.373 15.95h5.396c.057 2.299.536 4.47 1.353 6.423a14.648 14.648 0 0 0-3.184 1.737 12.109 12.109 0 0 1-3.565-8.16zm20.69 8.16c-.982-.7-2.045-1.293-3.185-1.737a17.76 17.76 0 0 0 1.353-6.423h5.396a12.109 12.109 0 0 1-3.565 8.16z"/></svg></svg>