<svg width="45" height="45" xmlns="http://www.w3.org/2000/svg" xmlns:xlink="http://www.w3.org/1999/xlink" xmlns:svgjs="http://svgjs.com/svgjs" viewBox="465 10096 45 45"><svg width="45" height="45" xmlns="http://www.w3.org/2000/svg" xmlns:xlink="http://www.w3.org/1999/xlink" xmlns:svgjs="http://svgjs.com/svgjs" viewBox="0 0 44.999 45" fill="#f39c12" x="465" y="10096"><svg xmlns="http://www.w3.org/2000/svg" xmlns:xlink="http://www.w3.org/1999/xlink" width="45" height="45" viewBox="2 1.999 44 44.001"><path paint-order="stroke fill markers" fill-rule="evenodd" d="M2 1.999h44v44H2V2z"/></svg></svg><svg width="25" height="22" xmlns="http://www.w3.org/2000/svg" xmlns:xlink="http://www.w3.org/1999/xlink" xmlns:svgjs="http://svgjs.com/svgjs" viewBox="0 0.732 25 20.536" fill="#fff" x="475" y="10108"><svg xmlns="http://www.w3.org/2000/svg" width="25" height="22" viewBox="1.1 1.724 23.8 19.551"><path paint-order="stroke fill markers" fill-rule="evenodd" d="M23.2 21.274H5.35a1.7 1.7 0 0 1-1.7-1.7H21.5a1.7 1.7 0 0 0 1.7-1.7v-13.6a1.7 1.7 0 0 1 1.7 1.7v13.6a1.7 1.7 0 0 1-1.7 1.7zm-2.55-2.55H2.8a1.7 1.7 0 0 1-1.7-1.7v-13.6c0-.94.761-1.7 1.7-1.7h17.85c.939 0 1.7.76 1.7 1.7v13.6a1.7 1.7 0 0 1-1.7 1.7zm0-15.3H2.8v13.6h17.85v-13.6zM7.602 13.822l2.54-4.339 2.541 2.705 3.494-5.555 3.652 9.558H3.632l2.064-4.36 1.906 1.991zM6.2 5.974a1.699 1.699 0 1 1 .002 3.398A1.699 1.699 0 0 1 6.2 5.974z"/></svg></svg></svg>